<svg id="Layer_1" height="512" viewBox="0 0 128 128" width="512" xmlns="http://www.w3.org/2000/svg" data-name="Layer 1"><path d="m54.42 113.647a14.766 14.766 0 0 1 -9.354-26.2c27.082-22.139 16-56.148 15.513-57.585a14.765 14.765 0 0 1 27.892-9.7c.779 2.219 18.581 54.756-24.715 90.148a14.7 14.7 0 0 1 -9.336 3.337z" fill="#ffce12"/><path d="m69.634 11.084a14.728 14.728 0 0 0 -9.055 18.781c.376 1.114 7.116 21.819-2.505 41.385l16.888-6.8 14.74 6.8c7.274-26.037-.714-49.614-1.231-51.085a14.8 14.8 0 0 0 -18.837-9.081z" fill="#ffce12"/><path d="m41.745 116.947-1.645-1.279a3.828 3.828 0 0 1 -.9-5.068l2.043-3.241a5.012 5.012 0 0 1 7.312-1.287l.374.29a5.012 5.012 0 0 1 .571 7.4l-2.631 2.785a3.828 3.828 0 0 1 -5.124.4z" fill="#b2e034"/><path d="m65.388 27.752a1.75 1.75 0 0 1 -1.742-1.6 10.286 10.286 0 0 1 6.021-10.579 1.75 1.75 0 0 1 1.3 3.249 6.781 6.781 0 0 0 -3.834 7.031 1.75 1.75 0 0 1 -1.594 1.893c-.05.004-.101.006-.151.006z" fill="#fff"/><path d="m74.962 64.452s-5.088-19.023-22.489-11.232c-15.1 6.76-.3 35.607-26.828 37.923-.001.001 34.308 20.298 49.317-26.691z" fill="#ff9d00"/><path d="m74.962 64.452s12.6-13.06 20.387-.7c8.185 12.984-11.795 26.38 7.006 37.041.001-.002-32.169 3.407-27.393-36.341z" fill="#ea7520"/><g fill="#242c43"><path d="m44.875 64.46a1.748 1.748 0 0 0 2.142-1.24q.083-.313.173-.622a1.75 1.75 0 1 0 -3.36-.978q-.1.346-.195.7a1.75 1.75 0 0 0 1.24 2.14z"/><path d="m103.219 99.269c-9.618-5.454-7.964-11.216-5.871-18.512 1.582-5.514 3.375-11.763-.519-17.94-2.313-3.67-5.269-5.715-8.785-6.076-4.968-.511-9.721 2.584-12.317 4.682-1.293-3.054-4.072-8.019-9.155-10.438a14.3 14.3 0 0 0 -1.645-.662 63.218 63.218 0 0 0 -2.7-21.037 13 13 0 0 1 17.937-15.986 13 13 0 0 1 6.655 7.443 91.874 91.874 0 0 1 4.11 31.157 1.75 1.75 0 0 0 1.68 1.817h.069a1.75 1.75 0 0 0 1.748-1.682 94.066 94.066 0 0 0 -4.3-32.449 16.515 16.515 0 1 0 -31.2 10.84 60.362 60.362 0 0 1 2.532 19.208 20.148 20.148 0 0 0 -9.7 1.99 12.836 12.836 0 0 0 -5.838 5.124 1.75 1.75 0 0 0 2.98 1.841 9.445 9.445 0 0 1 4.293-3.771c4.538-2.032 8.53-2.261 11.864-.681 5.158 2.444 7.5 8.567 8.075 10.3-4.813 14.75-12.022 24.05-21.437 27.648-7.681 2.936-15.317 1.4-20.127-.257 11.367-3.407 12.883-13.372 14.132-21.59l.254-1.653a1.75 1.75 0 0 0 -3.457-.544l-.257 1.671c-1.446 9.5-2.811 18.472-16.75 19.688a1.75 1.75 0 0 0 -.739 3.25 38.02 38.02 0 0 0 13.264 4.32 16.376 16.376 0 0 0 1.734 9.484l-2.027 3.215a5.558 5.558 0 0 0 1.3 7.382l1.648 1.279a5.558 5.558 0 0 0 7.473-.577l2.631-2.785a6.735 6.735 0 0 0 .771-8.288c22.955-16.17 24.984-37.166 25.155-41.48 2-1.88 6.729-5.417 10.991-4.981 2.425.25 4.447 1.708 6.182 4.461 3.058 4.852 1.628 9.833.115 15.108-1.765 6.152-3.727 12.99 2.684 19.047-5.957-.817-15.1-3.933-18.764-15.046a1.75 1.75 0 1 0 -3.323 1.1 26.487 26.487 0 0 0 3.6 7.188 79.054 79.054 0 0 1 -15.535 16.882 12.884 12.884 0 0 1 -5.4 2.629 1.75 1.75 0 1 0 .76 3.416 16.345 16.345 0 0 0 6.855-3.335 82.845 82.845 0 0 0 15.656-16.809c6.833 6.943 16.265 7.739 20.191 7.739 1.118 0 1.79-.064 1.827-.068a1.75 1.75 0 0 0 .679-3.263zm-54.986 13.3-2.633 2.78a2.069 2.069 0 0 1 -2.784.215l-1.648-1.279a2.07 2.07 0 0 1 -.484-2.75l2.043-3.241a3.262 3.262 0 0 1 4.758-.838l.374.291a3.262 3.262 0 0 1 .372 4.818zm.71-8.337a6.7 6.7 0 0 0 -6.489-.232 12.9 12.9 0 0 1 -.949-6.755c.29.008.575.024.869.024a29.451 29.451 0 0 0 10.535-1.9c5.736-2.183 10.7-6.2 14.87-11.974a57.846 57.846 0 0 1 -18.836 20.832z"/></g></svg>