<svg id="Layer_1" enable-background="new 0 0 511.02 511.02" height="512" viewBox="0 0 511.02 511.02" width="512" xmlns="http://www.w3.org/2000/svg"><circle cx="351.51" cy="367.52" fill="#e46a4a" r="96"/><path d="m380.871 276.1c25.55 15.4 42.64 43.413 42.64 75.42 0 48.601-39.399 88-88 88-32.007 0-60.02-17.09-75.42-42.64 12.405 38.657 48.642 66.64 91.42 66.64 53.019 0 96-42.981 96-96-.001-42.778-27.984-79.014-66.64-91.42z" fill="#d03582"/><circle cx="159.51" cy="407.52" fill="#e46a4a" r="96"/><path d="m188.871 316.1c25.55 15.4 42.64 43.413 42.64 75.42 0 48.601-39.399 88-88 88-32.007 0-60.02-17.09-75.42-42.64 12.405 38.657 48.642 66.64 91.42 66.64 53.019 0 96-42.981 96-96-.001-42.778-27.984-79.014-66.64-91.42z" fill="#d03582"/><path d="m191.51 448.02h16v15h-16z" fill="#fff"/><path d="m391.51 400.02h16v15h-16z" fill="#fff"/><path d="m331.795 83.599c-25.469 25.468-75.616 19.253-75.616 19.253s-6.215-50.147 19.253-75.616 75.338-18.975 75.338-18.975 6.493 49.869-18.975 75.338z" fill="#aae79a"/><path d="m331.79 83.6c-25.46 25.47-75.61 19.25-75.61 19.25l94.59-94.59c0 0 6.49 49.87-18.98 75.34z" fill="#52cd8d"/><path d="m143.94 166.919c21.224 21.224 63.013 16.044 63.013 16.044s5.179-41.79-16.044-63.013c-21.224-21.224-62.781-15.812-62.781-15.812s-5.412 41.557 15.812 62.781z" fill="#aae79a"/><path d="m206.95 182.96s-41.79 5.18-63.01-16.04c-21.22-21.23-15.81-62.78-15.81-62.78z" fill="#52cd8d"/><path d="m175.51 464.02h16v15h-16z"/><path d="m375.51 416.02h16v15h-16z"/><path d="m416.197 286.721-9.381 11.704c21.096 16.91 33.194 42.094 33.194 69.096 0 48.799-39.701 88.5-88.5 88.5s-88.5-39.701-88.5-88.5 39.701-88.5 88.5-88.5c14.302 0 27.948 3.304 40.561 9.819l6.885-13.326c-12.386-6.399-26.114-10.22-40.09-11.219-2.251-62.882-33.737-118.436-81.254-153.455 18.045-.923 43.02-5.472 59.486-21.938 27.76-27.76 21.393-79.423 21.109-81.609l-.745-5.724-5.724-.745c-2.186-.284-53.851-6.65-81.61 21.108-20.326 20.327-22.496 53.627-22.097 70.839-26.69-13.271-56.746-20.751-88.521-20.751v15c43.48 0 83.488 15.128 115.058 40.384-25.596 10.699-48.189 26.431-66.778 45.789l-62.044-62.044c12.557.619 29.357 3.602 39.859 14.104 6.269 6.268 10.569 15.561 12.784 27.622l14.754-2.71c-2.775-15.109-8.472-27.059-16.931-35.518-23.564-23.563-67.206-18.188-69.054-17.946l-5.724.745-.745 5.724c-.24 1.846-5.616 45.489 17.946 69.053 15.116 15.115 38.593 18.411 53.958 18.774-24.318 32.1-38.931 71.46-40.448 113.289-53.645 3.789-96.135 48.64-96.135 103.234 0 57.07 46.43 103.5 103.5 103.5 32.297 0 62.16-14.672 81.934-40.255l-11.867-9.173c-16.912 21.879-42.45 34.428-70.066 34.428-48.799 0-88.5-39.701-88.5-88.5s39.701-88.5 88.5-88.5 88.5 39.701 88.5 88.5c0 12.87-2.699 25.275-8.021 36.872l13.633 6.257c4.503-9.811 7.392-20.113 8.653-30.752 18.01 30.566 51.264 51.123 89.235 51.123 57.07 0 103.5-46.43 103.5-103.5-.001-31.577-14.147-61.028-38.814-80.799zm-266.953-125.105c-10.455-10.454-13.446-27.261-14.079-39.834l54.078 54.078c-12.629-.682-29.494-3.738-39.999-14.244zm131.492-129.077c13.972-13.973 37.021-17.109 52.614-17.465l-70.266 70.266c.436-15.684 3.677-38.827 17.652-52.801zm-7.047 63.409 70.266-70.266c-.357 15.594-3.493 38.642-17.465 52.613-13.973 13.976-37.121 17.218-52.801 17.653zm-24.937 259.206c-16.789-28.503-46.834-48.302-81.6-50.851 2.901-74.164 50.312-139.857 120.098-165.78 33.344 32.038 54.698 76.456 56.606 125.781-49.401 3.628-89.271 42.084-95.104 90.85z"/><path d="m423.01 367.52c0-39.425-32.075-71.5-71.5-71.5v15c31.154 0 56.5 25.346 56.5 56.5z"/><path d="m103.01 407.52c0-31.154 25.346-56.5 56.5-56.5v-15c-39.425 0-71.5 32.075-71.5 71.5z"/></svg>