<svg id="Capa_1" enable-background="new 0 0 512.032 512.032" height="512" viewBox="0 0 512.032 512.032" width="512" xmlns="http://www.w3.org/2000/svg"><ellipse cx="256.023" cy="309.27" fill="#ffda8f" rx="192.761" ry="192.761" transform="matrix(.707 -.707 .707 .707 -143.7 271.619)"/><path d="m276.482 150.536h-40.918l-10.006-108.126h60.93z" fill="#d1a184"/><path d="m404.455 132.367c-38.043 38.042-117.964 19.8-117.964 19.8s-18.242-79.921 19.8-117.964 117.964-19.8 117.964-19.8 18.242 79.922-19.8 117.964z" fill="#a0e5a5"/><path d="m448.783 319.272c-4.241 0-8.095-2.785-9.46-6.79-1.357-3.981 0-8.538 3.335-11.112 3.217-2.483 7.71-2.763 11.21-.703 3.619 2.13 5.531 6.441 4.715 10.553-.917 4.62-5.089 8.052-9.8 8.052z"/><path d="m445.814 344.625c-5.37-1.286-10.768 2.023-12.055 7.395-19.752 82.436-92.84 140.012-177.736 140.012-100.775 0-182.761-81.986-182.761-182.761 0-88.354 64.116-164.426 150.302-179.888l2.043 22.074c.476 5.144 4.792 9.078 9.958 9.078h40.918c1.273 0 2.494-.239 3.619-.676 1.185.985 2.603 1.701 4.164 2.057 1.649.377 20.96 4.653 45.247 4.653 11.35 0 23.786-.935 36.012-3.639 34.213 25.64 58.412 62.385 68.283 103.792 1.095 4.593 5.195 7.683 9.719 7.683.769 0 1.548-.089 2.328-.274 5.372-1.281 8.688-6.674 7.408-12.047-9.902-41.534-32.784-78.834-65.113-106.622 8.548-3.943 16.521-9.168 23.377-16.024 41.473-41.474 23.272-123.777 22.477-127.26-.854-3.745-3.779-6.669-7.523-7.524-3.483-.796-85.786-18.997-127.26 22.478-2.358 2.358-4.523 4.849-6.51 7.45-1.757-1.397-3.947-2.172-6.223-2.172h-60.93c-2.813 0-5.495 1.185-7.39 3.263s-2.827 4.858-2.568 7.659l6.115 66.071c-45.604 7.785-87.341 31.107-118.098 66.132-32.472 36.977-50.354 84.472-50.354 133.736 0 111.803 90.958 202.761 202.761 202.761 46.485 0 90.216-15.305 126.462-44.261 35.175-28.101 60.292-67.553 70.724-111.091 1.286-5.371-2.025-10.768-7.396-12.055zm-132.451-303.35c27.856-27.858 83.58-21.434 102.34-18.308 3.151 18.76 9.613 74.397-18.319 102.329-22.65 22.651-63.724 22.638-88.371 20.161l51.093-51.093c3.905-3.905 3.905-10.237 0-14.143-3.906-3.904-10.236-3.904-14.142 0l-52.458 52.458c-2.785-24.156-3.817-67.73 19.857-91.404zm-37.843 11.134-8.155 88.126h-22.684l-8.155-88.126z"/></svg>