<svg id="Capa_1" enable-background="new 0 0 512 512" height="512" viewBox="0 0 512 512" width="512" xmlns="http://www.w3.org/2000/svg"><path d="m422.598 17.5v457c0 16.569-13.431 30-30 30h-273.195c-16.569 0-30-13.431-30-30v-457c0-5.523 4.477-10 10-10h57.551c5.523 0 10 4.477 10 10v87.042c0 20.531 16.644 37.175 37.175 37.175h103.743c20.531 0 37.175-16.644 37.175-37.175v-87.042c0-5.523 4.477-10 10-10h57.551c5.522 0 10 4.477 10 10z" fill="#d4f2f6"/><path d="m422.6 17.5v457c0 16.57-13.43 30-30 30h-24.28c16.57 0 30-13.43 30-30v-457c0-5.52-4.47-10-10-10h24.28c5.52 0 10 4.48 10 10z" fill="#a8e7ef"/><path d="m204.13 141.72h-24.27c-20.54 0-37.18-16.65-37.18-37.18v-87.04c0-5.52-4.48-10-10-10h24.27c5.53 0 10 4.48 10 10v87.04c0 20.53 16.65 37.18 37.18 37.18z" fill="#a8e7ef"/><circle cx="256.001" cy="311.33" fill="#fde784" r="110.359"/><path d="m250.006 240.967c3.295-3.559 8.696-3.559 11.992 0 19.366 20.914 43.357 54.403 43.357 84.697 0 26.844-13.045 45.555-33.142 58.284-9.867 6.25-22.554 6.25-32.422 0-20.097-12.73-33.142-31.44-33.142-58.284 0-30.294 23.991-63.784 43.357-84.697z" fill="#a3e440"/><path d="m272.209 383.947c-6.882 4.358-15.125 5.678-22.834 3.953 2.39-.77 4.694-1.846 6.871-3.224 20.097-12.722 33.137-31.436 33.137-58.281.006-29.433-22.649-61.882-41.704-82.881.787-.868 1.557-1.719 2.327-2.547 3.293-3.56 8.7-3.56 11.993 0 19.362 20.913 43.359 54.403 43.354 84.693-.001 26.846-13.042 45.559-33.144 58.287z" fill="#99d53b"/><path d="m422.597 414.5c-4.143 0-7.5 3.358-7.5 7.5v52.5c0 12.407-10.094 22.5-22.5 22.5h-273.194c-12.406 0-22.5-10.093-22.5-22.5v-457c0-1.378 1.121-2.5 2.5-2.5h57.551c1.379 0 2.5 1.122 2.5 2.5v87.042c0 24.633 20.041 44.674 44.675 44.674h45.873c4.143 0 7.5-3.358 7.5-7.5s-3.357-7.5-7.5-7.5h-45.873c-16.362 0-29.675-13.312-29.675-29.674v-87.042c0-9.649-7.851-17.5-17.5-17.5h-57.551c-9.649 0-17.5 7.851-17.5 17.5v457c0 20.678 16.822 37.5 37.5 37.5h273.194c20.678 0 37.5-16.822 37.5-37.5v-52.5c0-4.142-3.357-7.5-7.5-7.5z"/><path d="m412.597 0h-57.551c-9.649 0-17.5 7.851-17.5 17.5v87.042c0 16.362-13.313 29.674-29.675 29.674h-23.87c-4.143 0-7.5 3.358-7.5 7.5s3.357 7.5 7.5 7.5h23.87c24.634 0 44.675-20.041 44.675-44.674v-87.042c0-1.378 1.121-2.5 2.5-2.5h57.551c1.379 0 2.5 1.122 2.5 2.5v370.5c0 4.142 3.357 7.5 7.5 7.5s7.5-3.358 7.5-7.5v-370.5c0-9.649-7.85-17.5-17.5-17.5z"/><path d="m170.955 240.612c-3.356-2.43-8.045-1.678-10.474 1.677-14.613 20.186-22.338 44.06-22.338 69.041 0 64.988 52.871 117.859 117.858 117.859s117.859-52.871 117.859-117.859c0-64.987-52.871-117.858-117.858-117.858-25.401 0-49.601 7.961-69.98 23.023-3.331 2.462-4.035 7.158-1.573 10.489 2.463 3.332 7.159 4.036 10.489 1.574 17.779-13.141 38.896-20.086 61.064-20.086 56.717 0 102.858 46.142 102.858 102.858 0 54.194-42.13 98.73-95.358 102.584v-18.55c4.453-.893 8.775-2.579 12.725-5.081 24.305-15.395 36.628-37.136 36.628-64.62 0-36.835-31.717-75.065-45.354-89.792-2.986-3.224-7.178-5.073-11.499-5.073s-8.513 1.849-11.499 5.073c-13.637 14.727-45.354 52.957-45.354 89.792 0 27.484 12.323 49.225 36.628 64.62 3.95 2.502 8.272 4.188 12.725 5.081v18.55c-53.229-3.854-95.358-48.39-95.358-102.584 0-21.802 6.739-42.634 19.488-60.245 2.428-3.355 1.677-8.044-1.677-10.473zm72.849 136.999c-19.955-12.64-29.655-29.632-29.655-51.948 0-31.53 28.924-66.171 41.359-79.601.324-.352.662-.351.986 0 12.436 13.43 41.359 48.07 41.359 79.601 0 22.316-9.7 39.309-29.655 51.948-1.489.943-3.068 1.688-4.697 2.252v-96.43c0-4.142-3.357-7.5-7.5-7.5s-7.5 3.358-7.5 7.5v96.43c-1.629-.564-3.208-1.308-4.697-2.252z"/></svg>