<svg id="Capa_1" enable-background="new 0 0 512 512" height="512" viewBox="0 0 512 512" width="512" xmlns="http://www.w3.org/2000/svg"><path d="m471.732 300.587c-8.457-3.724-15.272-8.338-20.741-13.471-3.113 10.61-7.847 19.573-11.509 25.512-2.602 4.22-8.567 4.617-11.767.829-15.174-17.96-19.109-35.698-17.952-51.038-14.546 14.514-34.297 20.488-45.77 22.849-4.856 1-9.235-3.071-8.672-7.997 2.666-23.32 12.847-38.339 24.78-48.017-16.042 1.969-35.008-1.402-54.227-17.639-3.788-3.2-3.391-9.165.829-11.767 5.938-3.661 14.901-8.396 25.512-11.509-5.133-5.469-9.747-12.284-13.471-20.741-25.837-5.948-51.847-3.852-74.742 8.948 18.474 18.018 29.876 41.79 29.876 70.872 0 72.091-47.39 89.469-72.145 151.221-8.461 21.103-19.564 35.745-30.515 45.884 10.664 11.579 25.722 19.051 42.508 19.733 14.952.607 33.234-1.879 54.239-10.861 61.17-26.16 106.967-4.938 157.944-55.915 27.33-27.33 33.793-62.268 25.823-96.893z" fill="#ff636e"/><path d="m296.625 165.517c-11.307 1.659-22.284 5.25-32.623 11.031 18.474 18.018 29.876 41.79 29.876 70.872 0 72.091-47.39 89.469-72.145 151.221-8.461 21.103-19.564 35.745-30.515 45.884 7.325 7.954 16.724 13.969 27.332 17.177 13.76-14.102 24.859-31.521 33.029-51.898 8.111-20.234 19.242-35.026 31.025-50.687 20.284-26.958 43.274-57.514 43.274-111.697 0-30.941-10.176-58.962-29.253-81.903z" fill="#ff4654"/><path d="m245.624 160.645c-8.614 3.347-16.695 4.903-24.192 5.141-.001-.002-.002-.004-.003-.006 5.303 9.706 8.294 19.394 9.905 26.184 1.144 4.824-2.793 9.322-7.734 8.907-23.43-1.97-38.755-11.731-48.783-23.395-.023 20.549-9.764 38.738-16.208 48.521-2.727 4.141-8.702 4.359-11.787.478-14.605-18.375-18.025-36.194-16.431-51.475-9.951 12.737-25.746 23.763-50.817 25.872-4.941.415-8.878-4.083-7.734-8.907 1.611-6.79 4.601-16.477 9.905-26.184-.001.002-.002.004-.003.006-7.497-.237-15.578-1.793-24.192-5.141-30.12 18.848-50.254 48.123-50.254 86.775 0 72.091 47.389 89.469 72.145 151.221 8.5 21.204 19.669 35.889 30.672 46.033 23.375 21.549 59.57 21.549 82.945 0 11.002-10.143 22.171-24.828 30.672-46.033 24.755-61.752 72.145-79.129 72.145-151.221.003-38.653-20.131-67.929-50.251-86.776z" fill="#ff7f87"/><path d="m158.342 444.673c-11.003-10.143-22.172-24.828-30.673-46.032-24.756-61.752-72.145-79.13-72.145-151.221 0-20.961 5.931-39.157 16.154-54.435.031-.338.081-.679.162-1.022 1.61-6.788 4.6-16.473 9.902-26.177-7.497-.237-15.578-1.793-24.191-5.14-30.12 18.847-50.254 48.123-50.254 86.775 0 72.091 47.389 89.469 72.145 151.221 8.5 21.204 19.669 35.889 30.672 46.032 18.137 16.72 43.99 20.458 65.586 11.231-6.236-2.666-12.12-6.403-17.358-11.232z" fill="#ff636e"/><path d="m140.313 130.12c2.942.546 5.233 2.818 5.826 5.661-.001.002-.003.004-.004.006.127-.176.255-.352.38-.522 2.746-3.736 8.211-3.931 11.311-.483-.117-.13-.242-.245-.365-.364.94-2.184 2.942-3.824 5.391-4.283.582-1.075 1.454-2.014 2.57-2.718 2.393-30.057 11.836-49.077 18.518-59.056 3.61-5.392 2.904-12.575-1.696-17.151-6.116-6.083-16.263-4.976-20.95 2.265-8.714 13.464-20.172 37.783-22.527 74.712.629.568 1.156 1.217 1.546 1.933z" fill="#bced6b"/><g fill="#a2e82d"><path d="m146.139 135.781-.004.005z"/><path d="m152.143 132.331c2.694-35.555 13.831-59.102 22.351-72.265 2.33-3.6 6.009-5.68 9.871-6.119-.577-.981-1.283-1.903-2.121-2.737-6.115-6.083-16.263-4.976-20.95 2.265-8.714 13.463-20.172 37.783-22.527 74.712.629.568 1.157 1.217 1.546 1.933 2.942.545 5.233 2.818 5.826 5.661.126-.174.253-.348.376-.516 1.396-1.899 3.495-2.879 5.628-2.934z"/><path d="m137.724 126.798c-41.487-23.684-76.7 5.146-89.914 18.64-3.702 3.779-2.606 10.065 2.166 12.418 10.673 5.264 21.355 8.1 31.752 8.428h.016c.183 0 .351-.1.439-.26 12.563-22.996 31.607-34.951 56.604-35.534.46-.014.946.029 1.436.12.188.034.383-.042.496-.198.114-.156.127-.363.035-.533-.7-1.282-1.747-2.348-3.03-3.081z"/></g><path d="m69.088 163.357c-4.771-2.353-5.867-8.639-2.166-12.418 10.443-10.664 34.626-30.899 64.786-27.231-38.85-17.817-71.328 8.894-83.899 21.731-3.702 3.779-2.606 10.065 2.166 12.418 8.027 3.959 16.06 6.544 23.973 7.722-1.62-.687-3.24-1.423-4.86-2.222z" fill="#98d829"/><path d="m255.366 145.439c-13.215-13.495-48.429-42.326-89.915-18.641-1.29.736-2.34 1.808-3.039 3.1-.092.17-.078.377.036.533s.307.23.496.196c.547-.103 1.008-.146 1.445-.135 24.997.583 44.041 12.538 56.604 35.534.088.161.256.26.439.26h.016c10.396-.329 21.079-3.165 31.751-8.428 4.752-2.344 5.882-8.627 2.167-12.419z" fill="#a2e82d"/><path d="m250.636 140.889c-8.24 3.926-16.546 6.316-24.774 7.107-.005.001-.01.001-.016.001-.182.012-.357-.077-.455-.231-9.596-15.159-21.893-24.955-36.712-29.298-7.434 1.145-15.213 3.754-23.229 8.33-1.29.736-2.34 1.808-3.039 3.1-.092.17-.078.377.036.533s.307.23.496.196c.547-.103 1.008-.146 1.445-.135 24.997.583 44.041 12.538 56.604 35.534.088.161.256.26.439.26h.016c10.396-.329 21.079-3.165 31.751-8.428 4.751-2.343 5.881-8.626 2.167-12.418-1.35-1.381-2.935-2.923-4.729-4.551z" fill="#98d829"/><path d="m231.82 191.848c-4.358-18.378-19.651-61.243-67.407-62.356-3.243-.082-6.142 1.781-7.411 4.729-.082.19-.038.412.111.556l.097.094c.083.08.167.159.246.246 11.206 12.466 16.878 26.718 16.861 42.357 0 .12.043.236.121.327 11.953 13.902 28.479 21.832 49.12 23.567.229.02.456.029.682.029 4.943-.001 8.755-4.6 7.58-9.549z" fill="#a2e82d"/><path d="m231.82 191.848c-.039-.164-.081-.334-.121-.502-15.891-2.133-29.169-8.154-39.595-17.968-3.024-2.847-4.843-6.722-5.199-10.861-.999-11.601-5.256-22.377-12.701-32.157-3.103-.486-6.36-.788-9.79-.868-3.243-.082-6.142 1.781-7.411 4.729-.082.19-.038.412.111.556l.097.094c.083.08.167.159.246.246 11.206 12.466 16.878 26.717 16.861 42.357 0 .119.042.236.12.326 11.953 13.903 28.479 21.833 49.121 23.568.229.02.456.029.682.029 4.942-.001 8.754-4.6 7.579-9.549z" fill="#98d829"/><path d="m138.762 129.492c-47.756 1.113-63.049 43.978-67.408 62.356-1.173 4.942 2.629 9.549 7.58 9.549.226 0 .454-.009.682-.029 21.879-1.84 39.095-10.608 51.169-26.062.058-.074.094-.163.103-.256 1.75-16.769 9.479-30.451 15.655-38.976.083-.114.113-.258.084-.396-.766-3.672-4.056-6.275-7.865-6.186z" fill="#a2e82d"/><path d="m94.173 191.983c3.798-16.013 15.901-50.614 50.545-59.99-1.483-1.596-3.621-2.556-5.956-2.502-47.756 1.113-63.049 43.978-67.408 62.356-1.173 4.942 2.629 9.549 7.58 9.549.226 0 .454-.009.682-.029 5.651-.475 10.985-1.422 16.006-2.818-1.389-1.762-2.029-4.122-1.449-6.566z" fill="#98d829"/><path d="m158.199 134.448c-1.599-1.779-3.882-2.737-6.249-2.616-2.329.115-4.457 1.257-5.838 3.136-10.499 14.278-31.483 51.806.318 91.815 3.293 4.143 9.676 3.921 12.596-.513 10.39-15.773 31.106-56.296-.827-91.822z" fill="#a2e82d"/><path d="m164.23 142.097c-1.762-2.568-3.759-5.121-6.031-7.649-1.599-1.779-3.882-2.737-6.249-2.616-2.329.115-4.457 1.257-5.838 3.136-10.499 14.278-31.483 51.806.318 91.815 3.293 4.143 9.676 3.921 12.596-.513 1.381-2.097 2.945-4.635 4.543-7.536-19.867-31.488-9.032-60.518.661-76.637z" fill="#98d829"/><path d="m418.85 204.537c1.695 2.466 1.707 5.693.117 8.123-.002.001-.005.001-.007.001.214-.034.429-.068.638-.1 4.584-.7 8.586 3.026 8.34 7.657.01-.174.001-.344-.001-.515 2.209-.88 4.785-.623 6.841.784 1.172-.349 2.452-.396 3.739-.105 22.945-19.561 43.072-26.333 54.853-28.665 6.365-1.26 10.945-6.838 10.929-13.327-.023-8.626-7.981-15.019-16.416-13.212-15.682 3.358-40.98 12.452-68.758 36.9.042.845-.044 1.676-.275 2.459z" fill="#bced6b"/><path d="m418.967 212.659-.007.001z" fill="#a2e82d"/><path d="m425.652 214.465c27.046-23.236 51.572-32.011 66.903-35.295 4.193-.898 8.265.232 11.306 2.653.285-1.102.439-2.253.436-3.435-.023-8.626-7.981-15.018-16.416-13.212-15.682 3.358-40.98 12.452-68.758 36.9.043.847-.042 1.678-.274 2.461 1.695 2.466 1.708 5.693.117 8.123.212-.034.425-.067.631-.099 2.331-.357 4.507.435 6.055 1.904z" fill="#a2e82d"/><path d="m419.368 200.357c-12.589-46.083-57.874-50.596-76.759-50.398-5.29.055-8.96 5.275-7.25 10.312 3.825 11.269 9.373 20.828 16.492 28.412.003.004.007.008.011.011.129.129.319.178.494.126 25.144-7.377 47.064-2.364 65.151 14.899.335.316.649.689.93 1.1.109.157.3.241.49.211.191-.03.347-.167.402-.352.415-1.402.428-2.896.039-4.321z" fill="#a2e82d"/><path d="m344.984 177.675c-1.71-5.038 1.96-10.258 7.25-10.312 14.925-.156 46.334 2.636 65.066 26.556-14.872-40.07-56.726-44.148-74.692-43.959-5.29.055-8.96 5.275-7.25 10.312 2.877 8.476 6.729 15.983 11.491 22.412-.659-1.632-1.284-3.299-1.865-5.009z" fill="#98d829"/><path d="m489.373 296.724c.198-18.887-4.315-64.173-50.399-76.76-1.432-.392-2.933-.376-4.34.043-.185.055-.321.212-.351.402s.054.38.212.49c.46.315.816.61 1.117.926 17.263 18.087 22.276 40.007 14.899 65.151-.051.176-.003.365.126.494l.011.011c7.583 7.119 17.143 12.667 28.411 16.492 5.017 1.702 10.259-1.941 10.314-7.249z" fill="#a2e82d"/><path d="m489.245 290.162c-8.602-3.05-16.166-7.234-22.543-12.492-.004-.003-.008-.006-.012-.01-.137-.12-.198-.306-.158-.485 3.934-17.505 2.165-33.127-5.242-46.676-6.066-4.447-13.412-8.103-22.315-10.535-1.432-.392-2.933-.376-4.34.043-.185.055-.321.212-.351.402s.054.38.212.49c.46.315.816.61 1.117.926 17.263 18.087 22.276 40.007 14.899 65.151-.051.176-.003.365.126.494l.011.011c7.583 7.119 17.143 12.667 28.411 16.492 5.016 1.703 10.258-1.941 10.313-7.249.02-1.931-.011-4.142-.128-6.562z" fill="#98d829"/><path d="m439.907 312.89c9.913-16.077 29.409-57.201-3.572-91.756-2.235-2.351-5.602-3.084-8.584-1.897-.192.077-.318.264-.315.472l.002.135c.003.115.006.231 0 .348-.891 16.739-6.957 30.827-18.028 41.874-.085.085-.136.197-.145.317-1.379 18.282 4.7 35.575 18.069 51.397.148.175.302.343.462.503 3.494 3.494 9.442 2.937 12.111-1.393z" fill="#a2e82d"/><path d="m439.907 312.89c.088-.144.18-.293.269-.441-9.728-12.745-14.86-26.392-15.293-40.704-.125-4.152 1.329-8.178 4.003-11.356 7.496-8.909 12.107-19.54 13.757-31.719-1.85-2.538-3.94-5.054-6.309-7.536-2.235-2.351-5.602-3.084-8.584-1.897-.192.077-.318.264-.315.472l.002.135c.003.115.006.231 0 .348-.891 16.738-6.957 30.827-18.028 41.874-.084.084-.137.197-.146.316-1.379 18.283 4.7 35.576 18.069 51.399.148.175.302.343.462.503 3.496 3.493 9.444 2.937 12.113-1.394z" fill="#98d829"/><path d="m418.198 202.996c-34.556-32.981-75.68-13.485-91.757-3.572-4.324 2.666-4.893 8.611-1.392 12.112.16.16.327.314.503.462 16.772 14.17 35.146 20.143 54.611 17.754.093-.011.181-.049.254-.108 13.095-10.62 28.235-14.829 38.63-16.49.139-.022.262-.102.339-.22 2.054-3.141 1.567-7.308-1.188-9.938z" fill="#a2e82d"/><path d="m342.48 215.655c14.009-8.638 47.033-24.545 78.16-6.678.079-2.177-.753-4.368-2.442-5.981-34.556-32.981-75.68-13.485-91.757-3.572-4.324 2.665-4.893 8.611-1.392 12.112.16.16.327.314.503.462 4.332 3.66 8.773 6.762 13.311 9.326.263-2.23 1.479-4.351 3.617-5.669z" fill="#98d829"/><path d="m428.437 220.245c.127-2.389-.81-4.68-2.569-6.268-1.728-1.566-4.041-2.263-6.345-1.911-17.52 2.672-58.895 14.37-64.698 65.148-.601 5.258 4.069 9.614 9.269 8.544 18.5-3.807 61.802-17.813 64.343-65.513z" fill="#a2e82d"/><path d="m427.292 229.918c.57-3.061.964-6.279 1.144-9.673.127-2.389-.81-4.68-2.569-6.268-1.728-1.566-4.041-2.263-6.345-1.911-17.52 2.672-58.895 14.37-64.698 65.148-.601 5.258 4.069 9.614 9.269 8.544 2.459-.506 5.36-1.195 8.541-2.117 8.218-36.314 36.407-49.18 54.658-53.723z" fill="#98d829"/><path d="m57.85 245.832c-4.143 0-7.5 3.358-7.5 7.5v10.079c0 4.142 3.357 7.5 7.5 7.5s7.5-3.358 7.5-7.5v-10.079c0-4.142-3.358-7.5-7.5-7.5z"/><path d="m105.238 245.832c-4.143 0-7.5 3.358-7.5 7.5v10.079c0 4.142 3.357 7.5 7.5 7.5s7.5-3.358 7.5-7.5v-10.079c0-4.142-3.357-7.5-7.5-7.5z"/><path d="m247.407 245.832c-4.143 0-7.5 3.358-7.5 7.5v10.079c0 4.142 3.357 7.5 7.5 7.5s7.5-3.358 7.5-7.5v-10.079c0-4.142-3.357-7.5-7.5-7.5z"/><path d="m200.018 245.832c-4.143 0-7.5 3.358-7.5 7.5v10.079c0 4.142 3.357 7.5 7.5 7.5s7.5-3.358 7.5-7.5v-10.079c0-4.142-3.358-7.5-7.5-7.5z"/><path d="m152.628 245.832c-4.143 0-7.5 3.358-7.5 7.5v10.079c0 4.142 3.357 7.5 7.5 7.5s7.5-3.358 7.5-7.5v-10.079c0-4.142-3.357-7.5-7.5-7.5z"/><path d="m105.238 330.355c-4.143 0-7.5 3.358-7.5 7.5v10.079c0 4.142 3.357 7.5 7.5 7.5s7.5-3.358 7.5-7.5v-10.079c0-4.142-3.357-7.5-7.5-7.5z"/><path d="m200.018 330.355c-4.143 0-7.5 3.358-7.5 7.5v10.079c0 4.142 3.357 7.5 7.5 7.5s7.5-3.358 7.5-7.5v-10.079c0-4.142-3.358-7.5-7.5-7.5z"/><path d="m152.628 330.355c-4.143 0-7.5 3.358-7.5 7.5v10.079c0 4.142 3.357 7.5 7.5 7.5s7.5-3.358 7.5-7.5v-10.079c0-4.142-3.357-7.5-7.5-7.5z"/><path d="m80.706 286.873c-4.143 0-7.5 3.358-7.5 7.5v10.079c0 4.142 3.357 7.5 7.5 7.5s7.5-3.358 7.5-7.5v-10.079c0-4.142-3.357-7.5-7.5-7.5z"/><path d="m222.875 286.873c-4.143 0-7.5 3.358-7.5 7.5v10.079c0 4.142 3.357 7.5 7.5 7.5s7.5-3.358 7.5-7.5v-10.079c0-4.142-3.357-7.5-7.5-7.5z"/><path d="m175.485 286.873c-4.143 0-7.5 3.358-7.5 7.5v10.079c0 4.142 3.357 7.5 7.5 7.5s7.5-3.358 7.5-7.5v-10.079c0-4.142-3.357-7.5-7.5-7.5z"/><path d="m128.096 286.873c-4.143 0-7.5 3.358-7.5 7.5v10.079c0 4.142 3.357 7.5 7.5 7.5s7.5-3.358 7.5-7.5v-10.079c0-4.142-3.358-7.5-7.5-7.5z"/><path d="m175.485 372.81c-4.143 0-7.5 3.358-7.5 7.5v10.079c0 4.142 3.357 7.5 7.5 7.5s7.5-3.358 7.5-7.5v-10.079c0-4.142-3.357-7.5-7.5-7.5z"/><path d="m128.096 372.81c-4.143 0-7.5 3.358-7.5 7.5v10.079c0 4.142 3.357 7.5 7.5 7.5s7.5-3.358 7.5-7.5v-10.079c0-4.142-3.358-7.5-7.5-7.5z"/><path d="m486.514 158.037c-15.294 3.275-38.079 11.396-63.352 31.288-16.678-41.164-59.451-46.178-79.212-46.178-10.541 0-15.92 7.627-15.773 15.099-21.993-2.921-42.954.054-61.461 8.793-2.087-1.835-4.259-3.615-6.512-5.342 2.259-2.176 3.826-5.026 4.363-8.18.791-4.643-.704-9.421-3.996-12.781-5.313-5.426-11.063-10.284-17.089-14.438-3.41-2.349-8.08-1.491-10.432 1.919s-1.492 8.081 1.918 10.432c6.366 4.388 11.446 9.093 14.655 12.348-7.402 3.622-15.469 6.26-23.838 7.167-7.821-12.764-19.625-25.1-37.31-31.319 5.738-1.077 11.523-1.198 17.319-.351 4.097.602 7.906-2.237 8.506-6.336s-2.237-7.907-6.336-8.506c-11.254-1.645-22.396-.47-33.269 3.462 3.382-20.429 10.135-34.1 15.681-42.383 5.592-8.352 4.482-19.557-2.64-26.642-9.489-9.437-25.254-7.742-32.535 3.508-8.499 13.131-18.868 34.985-22.672 66.92-41.76-17.677-76.104 10.525-89.517 24.221-3.293 3.362-4.786 8.141-3.995 12.784.537 3.153 2.104 6.002 4.362 8.178-28.072 21.496-43.379 51.586-43.379 85.915 0 75.094 48.494 93.67 72.684 154.011 13.313 33.208 38.788 66.806 79.106 66.806 14.123 0 28.236-4.294 40.142-12.846 11.676 9.972 26.243 15.732 41.691 16.36 19.811.805 39.26-3.662 57.493-11.459 59.779-25.566 107.199-4.41 160.298-57.508 11.728-11.728 20.287-25.231 25.44-40.134 1.354-3.915-.722-8.186-4.637-9.54-3.913-1.352-8.185.724-9.539 4.637-4.405 12.738-11.764 24.322-21.872 34.43-48.877 48.877-92.993 27.552-155.589 54.322-17.478 7.475-34.627 10.924-50.985 10.264-11.347-.462-22.087-4.482-30.921-11.446 11.391-11.869 20.655-26.6 27.586-43.886 24.192-60.347 72.684-78.919 72.684-154.011 0-26.146-8.882-49.834-25.516-69.143 16.773-6.656 35.761-8.096 55.66-4.129 1.642 3.334 3.948 7.341 6.232 10.645-5.546 2.284-11.35 5.195-16.987 8.672-8.333 5.136-9.606 17.247-1.581 24.005 12.071 10.159 25.968 17.211 41.411 19.209-8.485 11.553-13.065 25.191-14.729 39.742-.597 5.217 1.62 10.661 6.347 13.9 10.68 7.302 38.758-6.19 48.58-12.635 2.179 15.21 9.428 29.238 19.289 40.718 6.521 7.56 18.552 6.643 23.78-1.838s0-.001.001-.001c3.47-5.648 6.347-11.342 8.671-16.987 3.354 2.319 7.293 4.581 10.646 6.232 1.313 6.596 2.049 13.159 2.189 19.556.09 4.085 3.429 7.335 7.495 7.335.056 0 .111 0 .167-.002 4.142-.091 7.425-3.521 7.334-7.663-.099-4.501-.462-9.067-1.072-13.66.091.002.183.011.274.011 3.041 0 6.056-.931 8.587-2.725 3.842-2.723 6.165-7.158 6.215-11.864.195-18.608-3.891-60.832-42.574-78.864 16.824-12.039 31.254-16.926 41.026-18.86 9.86-1.952 16.998-10.659 16.973-20.704-.034-13.392-12.386-23.334-25.485-20.528zm-262.351 35.531c-15.82-1.376-30.638-7.059-41.639-18.78-.443-11.878-3.929-24.44-12.497-36.741 30.316 3.198 47.449 27.686 54.136 55.521zm-56.371-135.823c2.104-3.25 6.632-3.742 9.364-1.024 2.047 2.036 2.364 5.258.754 7.662-7.394 11.044-16.645 30.227-19.489 59.548-.907.398-1.766.889-2.573 1.458-2.584-.587-5.315-.448-7.711.297-.441-.333-.901-.641-1.38-.923 2.764-32.684 12.868-54.399 21.035-67.018zm-15.206 82.396c21.788 24.373 17.906 54.487.143 81.647-20.319-25.86-19.548-54.884-.143-81.647zm-16.506-2.31c-6.306 10.216-11.072 22.084-12.751 34.389-11.18 13.303-26.438 19.823-43.91 21.348 7.266-30.246 25.623-53.617 56.661-55.737zm-20.907-11.01c-17.723 6.212-29.547 18.563-37.377 31.342-8.254-.895-16.32-3.489-23.837-7.167 12.149-12.336 34.364-29.272 61.214-24.175zm173.408 120.794c0 69.124-46.277 85.242-71.606 148.43-6.615 16.499-16.474 32.405-29.618 44.031-20.431 18.072-51.819 17.842-71.956-.722-12.032-11.092-21.721-25.664-28.794-43.309-25.343-63.214-71.607-79.303-71.607-148.43 0-40.3 23.073-64.7 43.691-78.453 4.092 1.391 8.25 2.451 11.934 3.121-2.503 6.006-4.463 12.177-5.88 18.145-2.331 9.83 5.766 18.941 15.661 18.11 15.632-1.315 30.536-6.064 43.062-15.719 2.157 14.09 8.813 27.656 17.825 38.67 5.892 7.204 17.611 8.53 24.725-2.628.007-.012.015-.023.022-.035 5.042-7.914 11.757-20.542 14.849-35.436 12.378 9.273 27.062 13.867 42.286 15.148 10.016.841 17.965-8.392 15.661-18.11 0 0 0 0 0-.001-1.146-4.83-2.994-11.218-5.88-18.144 3.819-.699 7.981-1.776 11.934-3.121 27.222 18.159 43.691 44.584 43.691 78.453zm192.997 48.89c-7.903-2.709-15.464-6.59-21.924-11.788 3.497-14.563 3.873-31.643-4.248-48.555 22.575 15.388 26.304 43.041 26.172 60.343zm-77.978-112.166c-16.923-8.138-34.016-7.765-48.589-4.266-5.214-6.484-9.088-14.048-11.788-21.924 23.523-.161 47.077 6.667 60.377 26.19zm-72.476 21.916c26.02-16.038 55.819-20.037 79.478.654-11.867 2.807-23.541 7.861-33.333 15.3-17.389 1.534-32.893-4.826-46.145-15.954zm31.883 71.795c3.914-33.479 26.018-52.805 57.632-57.835-1.847 32.663-25.873 51.183-57.632 57.835zm80.991 7.147c0 1.014-3.938 12.655-10.525 23.408-10.262-12.248-16.629-26.533-16.163-42.722 8.086-8.712 14.504-20.06 17.143-34.817 12.064 15.006 15.784 32.861 9.545 54.131zm48.117-100.645c-13.039 2.581-33.147 9.605-55.894 28.331-.919-.359-1.871-.619-2.84-.787-1.428-2.273-3.423-4.074-5.666-5.25-.014-.099-.315-1.596-.323-1.628 25.063-21.154 47.565-29.367 62.262-32.514 3.781-.81 7.335 2.036 7.346 5.897.008 2.887-2.047 5.39-4.885 5.951z"/><path d="m402.347 361.998-7.127 7.127c-2.929 2.929-2.929 7.678 0 10.606 2.93 2.929 7.678 2.929 10.607 0l7.127-7.127c2.929-2.929 2.929-7.678 0-10.606-2.93-2.929-7.678-2.929-10.607 0z"/><path d="m379.444 339.095c2.929-2.929 2.929-7.678 0-10.606-2.93-2.929-7.678-2.929-10.607 0l-7.127 7.127c-2.929 2.929-2.929 7.678 0 10.606 2.93 2.929 7.678 2.929 10.607 0z"/><path d="m345.936 305.586c2.929-2.929 2.929-7.678 0-10.606-2.93-2.929-7.678-2.929-10.607 0l-7.127 7.127c-2.929 2.929-2.929 7.678 0 10.606 2.93 2.929 7.678 2.929 10.607 0z"/><path d="m309.07 388.255-7.127 7.127c-2.929 2.929-2.929 7.678.001 10.607 2.926 2.927 7.675 2.93 10.606 0l7.127-7.127c2.929-2.929 2.929-7.678-.001-10.607-2.927-2.929-7.676-2.929-10.606 0z"/><path d="m286.168 365.352c2.929-2.929 2.929-7.678 0-10.606-2.93-2.929-7.678-2.929-10.607 0l-7.127 7.127c-2.929 2.929-2.929 7.678 0 10.606 2.93 2.929 7.678 2.929 10.607 0z"/><path d="m359.46 391.404 7.127-7.127c2.929-2.929 2.929-7.678 0-10.606-2.93-2.929-7.678-2.929-10.607 0l-7.127 7.127c-2.929 2.929-2.929 7.678 0 10.606 2.93 2.93 7.677 2.929 10.607 0z"/><path d="m333.077 350.768c2.929-2.929 2.929-7.678 0-10.606-2.93-2.929-7.678-2.929-10.607 0l-7.127 7.127c-2.929 2.929-2.929 7.678 0 10.606 2.93 2.929 7.678 2.929 10.607 0z"/><path d="m261.704 400.928-7.128 7.127c-2.93 2.929-2.93 7.678-.001 10.606 2.933 2.933 7.682 2.926 10.606.001l7.128-7.127c2.93-2.929 2.93-7.678.001-10.606-2.929-2.929-7.678-2.93-10.606-.001z"/></svg>